<svg width="22" height="21" viewBox="0 0 22 21" fill="none" xmlns="http://www.w3.org/2000/svg">
<path d="M11.155 0.711423C11.0752 0.635127 10.9691 0.592545 10.8587 0.592545C10.7484 0.592545 10.6423 0.635127 10.5625 0.711423L0.699999 10.133C0.658114 10.1731 0.624792 10.2212 0.602048 10.2746C0.579305 10.3279 0.567612 10.3852 0.567678 10.4432L0.566071 19.2857C0.566071 19.7404 0.746682 20.1764 1.06817 20.4979C1.38966 20.8194 1.8257 21 2.28036 21H7.42857C7.6559 21 7.87392 20.9097 8.03466 20.7489C8.19541 20.5882 8.28571 20.3702 8.28571 20.1429V12.8571C8.28571 12.7435 8.33087 12.6345 8.41124 12.5541C8.49161 12.4737 8.60062 12.4286 8.71428 12.4286H13C13.1137 12.4286 13.2227 12.4737 13.303 12.5541C13.3834 12.6345 13.4286 12.7435 13.4286 12.8571V20.1429C13.4286 20.3702 13.5189 20.5882 13.6796 20.7489C13.8404 20.9097 14.0584 21 14.2857 21H19.4318C19.8864 21 20.3225 20.8194 20.644 20.4979C20.9655 20.1764 21.1461 19.7404 21.1461 19.2857V10.4432C21.1461 10.3852 21.1344 10.3279 21.1117 10.2746C21.089 10.2212 21.0556 10.1731 21.0137 10.133L11.155 0.711423Z" fill="#333333"/>
</svg>
