<svg width="27" height="24" viewBox="0 0 27 24" fill="none" xmlns="http://www.w3.org/2000/svg">
<path d="M22.8454 4.41825H18.5109V3.29638C18.5109 2.37849 18.7556 1.08321 18.1267 0.454279C17.4978 -0.174648 16.1651 0.0327567 15.2472 0.0327567H10.8618C9.94386 0.0327567 8.63841 -0.174641 8.00948 0.454287C7.38055 1.08321 7.59813 2.37849 7.59813 3.29638V4.41825H3.26362C2.34573 4.41825 1.57232 4.72422 0.943392 5.33615C0.314464 5.94808 0 6.72999 0 7.68188V12.0164C0 12.7303 0.356959 13.0873 1.07088 13.0873V21.8073C1.07088 22.3852 1.29185 22.8951 1.7338 23.3371C2.17575 23.779 2.68569 24 3.26362 24H22.8454C23.4233 24 23.9332 23.779 24.3752 23.3371C24.8171 22.8951 25.0381 22.3852 25.0381 21.8073V13.0873C25.752 13.0873 26.109 12.7303 26.109 12.0164V7.68188C26.109 6.72999 25.7945 5.94808 25.1656 5.33615C24.5367 4.72422 23.7633 4.41825 22.8454 4.41825ZM9.79087 3.29638C9.79087 2.99042 9.89286 2.73545 10.0968 2.53147C10.3008 2.32749 10.5558 2.2255 10.8618 2.2255H15.2472C15.5532 2.2255 15.8082 2.32749 16.0122 2.53147C16.2161 2.73545 16.3181 2.99042 16.3181 3.29638V4.41825H9.79087V3.29638ZM3.26362 21.8073V13.0873H9.79087V16.3509C9.79087 16.9628 9.79087 16.5957 9.79087 16.5957C9.79087 16.5957 11.3717 16.5957 11.9836 16.5957H13.0545H14.1254C14.7373 16.5957 16.196 16.5957 16.196 16.5957L16.3181 16.3509V13.0873H22.8454V21.8073H3.26362ZM11.9836 14.7871V13.0873H14.1254V14.7871H11.9836ZM23.9162 10.9455H2.19275V7.68188C2.19275 6.93396 2.54971 6.56001 3.26362 6.56001H22.8454C23.5593 6.56001 23.9162 6.93396 23.9162 7.68188V10.9455Z" fill="#333333"/>
</svg>
