<svg width="26" height="13" viewBox="0 0 26 13" fill="none" xmlns="http://www.w3.org/2000/svg">
<path d="M25.4416 11.3652L21.4345 7.53161V1.71429C21.4345 1.48696 21.3442 1.26894 21.1834 1.10819C21.0227 0.947449 20.8047 0.857143 20.5773 0.857143H18.0059C17.7786 0.857143 17.5606 0.947449 17.3998 1.10819C17.2391 1.26894 17.1488 1.48696 17.1488 1.71429V3.42857L14.0459 0.461786C13.7556 0.168214 13.3238 0 12.8572 0C12.3922 0 11.9614 0.168214 11.6711 0.462321L0.276449 11.3641C-0.0567654 11.6855 -0.0985511 12.2143 0.204663 12.5625C0.280805 12.6504 0.374035 12.7219 0.47868 12.7726C0.583325 12.8233 0.697196 12.8522 0.813363 12.8575C0.92953 12.8628 1.04556 12.8444 1.1544 12.8035C1.26324 12.7625 1.3626 12.6999 1.44645 12.6193L12.5625 1.99714C12.6423 1.92085 12.7484 1.87826 12.8588 1.87826C12.9691 1.87826 13.0753 1.92085 13.155 1.99714L24.2722 12.6193C24.4359 12.7763 24.6553 12.862 24.8821 12.8576C25.109 12.8532 25.3248 12.759 25.4823 12.5957C25.8113 12.255 25.7839 11.6925 25.4416 11.3652Z" fill="#36DFB1"/>
</svg>
