<svg width="22" height="21" viewBox="0 0 22 21" fill="none" xmlns="http://www.w3.org/2000/svg">
<path d="M11.155 0.711423C11.0753 0.635127 10.9692 0.592545 10.8588 0.592545C10.7484 0.592545 10.6423 0.635127 10.5625 0.711423L0.70003 10.133C0.658145 10.1731 0.624823 10.2212 0.602079 10.2746C0.579335 10.3279 0.567642 10.3852 0.567708 10.4432L0.566101 19.2857C0.566101 19.7404 0.746713 20.1764 1.0682 20.4979C1.38969 20.8194 1.82573 21 2.28039 21H7.4286C7.65593 21 7.87395 20.9097 8.03469 20.7489C8.19544 20.5882 8.28574 20.3702 8.28574 20.1429V12.8571C8.28574 12.7435 8.3309 12.6345 8.41127 12.5541C8.49164 12.4737 8.60065 12.4286 8.71431 12.4286H13C13.1137 12.4286 13.2227 12.4737 13.3031 12.5541C13.3834 12.6345 13.4286 12.7435 13.4286 12.8571V20.1429C13.4286 20.3702 13.5189 20.5882 13.6797 20.7489C13.8404 20.9097 14.0584 21 14.2857 21H19.4318C19.8865 21 20.3225 20.8194 20.644 20.4979C20.9655 20.1764 21.1461 19.7404 21.1461 19.2857V10.4432C21.1462 10.3852 21.1345 10.3279 21.1117 10.2746C21.089 10.2212 21.0557 10.1731 21.0138 10.133L11.155 0.711423Z" fill="#36DFB1"/>
</svg>
