<svg width="28" height="11" viewBox="0 0 28 11" fill="none" xmlns="http://www.w3.org/2000/svg">
<path d="M8.29859 10H6.97926L1.96852 2.33008V10H0.649179V0.046875H1.96852L6.99293 7.75098V0.046875H8.29859V10ZM9.85645 6.2334C9.85645 5.50879 9.99772 4.8571 10.2803 4.27832C10.5674 3.69954 10.9639 3.25293 11.4697 2.93848C11.9801 2.62402 12.5612 2.4668 13.2129 2.4668C14.2201 2.4668 15.0335 2.81543 15.6533 3.5127C16.2777 4.20996 16.5898 5.13737 16.5898 6.29492V6.38379C16.5898 7.10384 16.4508 7.75098 16.1729 8.3252C15.8994 8.89486 15.5052 9.33919 14.9902 9.6582C14.4798 9.97721 13.8919 10.1367 13.2266 10.1367C12.224 10.1367 11.4105 9.78809 10.7861 9.09082C10.1663 8.39355 9.85645 7.4707 9.85645 6.32227V6.2334ZM11.1279 6.38379C11.1279 7.2041 11.3171 7.86263 11.6953 8.35938C12.0781 8.85612 12.5885 9.10449 13.2266 9.10449C13.8691 9.10449 14.3796 8.85384 14.7578 8.35254C15.1361 7.84668 15.3252 7.1403 15.3252 6.2334C15.3252 5.4222 15.1315 4.76595 14.7441 4.26465C14.3613 3.75879 13.8509 3.50586 13.2129 3.50586C12.5885 3.50586 12.085 3.75423 11.7021 4.25098C11.3193 4.74772 11.1279 5.45866 11.1279 6.38379ZM24.4846 8.25684L25.9065 2.60352H27.1711L25.0178 10H23.9924L22.1946 4.39453L20.4446 10H19.4192L17.2727 2.60352H18.5305L19.9866 8.14062L21.7092 2.60352H22.7278L24.4846 8.25684Z" fill="#333333"/>
</svg>
