<svg width="52" height="50" viewBox="0 0 52 50" fill="none" xmlns="http://www.w3.org/2000/svg">
<g filter="url(#filter0_d_14_2291)">
<path d="M3 19C3 13.3995 3 10.5992 4.08993 8.46009C5.04867 6.57847 6.57847 5.04867 8.46009 4.08993C10.5992 3 13.3995 3 19 3H29C34.6005 3 37.4008 3 39.5399 4.08993C41.4215 5.04867 42.9513 6.57847 43.9101 8.46009C45 10.5992 45 13.3995 45 19V27C45 32.6005 45 35.4008 43.9101 37.5399C42.9513 39.4215 41.4215 40.9513 39.5399 41.9101C37.4008 43 34.6005 43 29 43H19C13.3995 43 10.5992 43 8.46009 41.9101C6.57847 40.9513 5.04867 39.4215 4.08993 37.5399C3 35.4008 3 32.6005 3 27V19Z" fill="white"/>
<path d="M8.46009 41.9101L8.68709 41.4646L8.46009 41.9101ZM4.08993 37.5399L4.53544 37.3129L4.08993 37.5399ZM43.9101 37.5399L44.3556 37.7669L43.9101 37.5399ZM39.5399 41.9101L39.3129 41.4646L39.5399 41.9101ZM43.9101 8.46009L44.3556 8.2331L43.9101 8.46009ZM8.46009 4.08993L8.68709 4.53544L8.46009 4.08993ZM19 3.5H29V2.5H19V3.5ZM44.5 19V27H45.5V19H44.5ZM29 42.5H19V43.5H29V42.5ZM3.5 27V19H2.5V27H3.5ZM19 42.5C16.1915 42.5 14.1152 42.4996 12.4727 42.3654C10.8361 42.2317 9.67441 41.9676 8.68709 41.4646L8.2331 42.3556C9.38489 42.9424 10.6929 43.2233 12.3913 43.3621C14.0839 43.5004 16.208 43.5 19 43.5V42.5ZM2.5 27C2.5 29.792 2.49961 31.9161 2.6379 33.6087C2.77667 35.3071 3.05756 36.6151 3.64443 37.7669L4.53544 37.3129C4.03237 36.3256 3.7683 35.1639 3.63458 33.5273C3.50039 31.8848 3.5 29.8085 3.5 27H2.5ZM8.68709 41.4646C6.89955 40.5538 5.44624 39.1004 4.53544 37.3129L3.64443 37.7669C4.6511 39.7426 6.2574 41.3489 8.2331 42.3556L8.68709 41.4646ZM44.5 27C44.5 29.8085 44.4996 31.8848 44.3654 33.5273C44.2317 35.1639 43.9676 36.3256 43.4646 37.3129L44.3556 37.7669C44.9424 36.6151 45.2233 35.3071 45.3621 33.6087C45.5004 31.9161 45.5 29.792 45.5 27H44.5ZM29 43.5C31.792 43.5 33.9161 43.5004 35.6087 43.3621C37.3071 43.2233 38.6151 42.9424 39.7669 42.3556L39.3129 41.4646C38.3256 41.9676 37.1639 42.2317 35.5273 42.3654C33.8848 42.4996 31.8085 42.5 29 42.5V43.5ZM43.4646 37.3129C42.5538 39.1004 41.1004 40.5538 39.3129 41.4646L39.7669 42.3556C41.7426 41.3489 43.3489 39.7426 44.3556 37.7669L43.4646 37.3129ZM29 3.5C31.8085 3.5 33.8848 3.50039 35.5273 3.63458C37.1639 3.7683 38.3256 4.03237 39.3129 4.53544L39.7669 3.64443C38.6151 3.05756 37.3071 2.77667 35.6087 2.6379C33.9161 2.49961 31.792 2.5 29 2.5V3.5ZM45.5 19C45.5 16.208 45.5004 14.0839 45.3621 12.3913C45.2233 10.6929 44.9424 9.38489 44.3556 8.2331L43.4646 8.68709C43.9676 9.67441 44.2317 10.8361 44.3654 12.4727C44.4996 14.1152 44.5 16.1915 44.5 19H45.5ZM39.3129 4.53544C41.1004 5.44624 42.5538 6.89955 43.4646 8.68709L44.3556 8.2331C43.3489 6.2574 41.7426 4.6511 39.7669 3.64443L39.3129 4.53544ZM19 2.5C16.208 2.5 14.0839 2.49961 12.3913 2.6379C10.6929 2.77667 9.38489 3.05756 8.2331 3.64443L8.68709 4.53544C9.67441 4.03237 10.8361 3.7683 12.4727 3.63458C14.1152 3.50039 16.1915 3.5 19 3.5V2.5ZM3.5 19C3.5 16.1915 3.50039 14.1152 3.63458 12.4727C3.7683 10.8361 4.03237 9.67441 4.53544 8.68709L3.64443 8.2331C3.05756 9.38489 2.77667 10.6929 2.6379 12.3913C2.49961 14.0839 2.5 16.208 2.5 19H3.5ZM8.2331 3.64443C6.2574 4.6511 4.6511 6.2574 3.64443 8.2331L4.53544 8.68709C5.44624 6.89955 6.89955 5.44624 8.68709 4.53544L8.2331 3.64443Z" fill="#E5E5E5"/>
</g>
<defs>
<filter id="filter0_d_14_2291" x="0.5" y="0.5" width="51" height="49" filterUnits="userSpaceOnUse" color-interpolation-filters="sRGB">
<feFlood flood-opacity="0" result="BackgroundImageFix"/>
<feColorMatrix in="SourceAlpha" type="matrix" values="0 0 0 0 0 0 0 0 0 0 0 0 0 0 0 0 0 0 127 0" result="hardAlpha"/>
<feOffset dx="2" dy="2"/>
<feGaussianBlur stdDeviation="2"/>
<feComposite in2="hardAlpha" operator="out"/>
<feColorMatrix type="matrix" values="0 0 0 0 0 0 0 0 0 0 0 0 0 0 0 0 0 0 0.1 0"/>
<feBlend mode="normal" in2="BackgroundImageFix" result="effect1_dropShadow_14_2291"/>
<feBlend mode="normal" in="SourceGraphic" in2="effect1_dropShadow_14_2291" result="shape"/>
</filter>
</defs>
</svg>
