<svg width="28" height="28" viewBox="0 0 28 28" fill="none" xmlns="http://www.w3.org/2000/svg">
<path fill-rule="evenodd" clip-rule="evenodd" d="M13.75 0C6.15625 0 0 6.15625 0 13.75C0 21.3438 6.15625 27.5 13.75 27.5C21.3438 27.5 27.5 21.3438 27.5 13.75C27.5 6.15625 21.3438 0 13.75 0ZM2.5 13.75C2.5 16.3625 3.39125 18.7675 4.885 20.6775C5.93404 19.2999 7.28737 18.1834 8.83929 17.4154C10.3912 16.6473 12.0997 16.2485 13.8312 16.25C15.5404 16.2484 17.2274 16.6369 18.7637 17.386C20.2999 18.135 21.645 19.2249 22.6962 20.5725C23.7793 19.152 24.5085 17.494 24.8236 15.7357C25.1387 13.9775 25.0305 12.1694 24.5081 10.4612C23.9857 8.75304 23.064 7.19381 21.8194 5.91255C20.5747 4.63128 19.0428 3.66482 17.3505 3.09314C15.6581 2.52145 13.854 2.36096 12.0873 2.62497C10.3207 2.88897 8.64224 3.56986 7.19096 4.61132C5.73968 5.65277 4.55726 7.02484 3.74154 8.61399C2.92581 10.2032 2.50023 11.9637 2.5 13.75ZM13.75 25C11.1674 25.0039 8.66283 24.1154 6.66 22.485C7.46616 21.3309 8.53917 20.3886 9.78774 19.7384C11.0363 19.0881 12.4235 18.749 13.8312 18.75C15.2215 18.7489 16.5919 19.0795 17.8287 19.7143C19.0655 20.3491 20.133 21.2698 20.9425 22.4C18.9241 24.0834 16.3782 25.0037 13.75 25Z" fill="#8A8A8E"/>
</svg>
