<svg width="36" height="24" viewBox="0 0 36 24" fill="none" xmlns="http://www.w3.org/2000/svg">
<path d="M35.4 9.6C35.175 9.225 32.9543 8.26575 32.9543 8.26575C33.3405 8.06625 33.6045 8.025 33.6045 7.2C33.6045 6.3 33.6 6 33 6H30.9645C30.9562 5.982 30.9473 5.96325 30.939 5.9445C29.625 3.075 29.4487 2.34975 27.489 1.37325C24.8603 0.0659998 19.932 0 18 0C16.068 0 11.1398 0.0659998 8.51325 1.37325C6.55125 2.34825 6.6 2.85 5.06325 5.9445C5.06325 5.95275 5.0475 5.9745 5.03325 6H2.9955C2.4 6 2.3955 6.3 2.3955 7.2C2.3955 8.025 2.6595 8.06625 3.04575 8.26575C3.04575 8.26575 0.9 9.3 0.6 9.6C0.3 9.9 0 12 0 15.6C0 19.2 0.3 22.8 0.3 22.8H1.1955C1.1955 23.85 1.35 24 1.8 24H7.8C8.25 24 8.4 23.85 8.4 22.8H27.6C27.6 23.85 27.75 24 28.2 24H34.35C34.65 24 34.8 23.775 34.8 22.8H35.7C35.7 22.8 36 19.125 36 15.6C36 12.075 35.625 9.975 35.4 9.6ZM8.1945 12.9705C6.82854 13.1198 5.4556 13.1964 4.0815 13.2C2.55 13.2 2.4975 13.2983 2.3895 12.342C2.34887 11.9043 2.36172 11.4633 2.42775 11.0288L2.475 10.8H2.7C3.6 10.8 4.44525 10.8383 6.04125 11.3085C6.85299 11.5521 7.6165 11.9342 8.298 12.438C8.625 12.675 8.7 12.9 8.7 12.9L8.1945 12.9705ZM26.7315 18.3705L26.4 19.2H9.6C9.6 19.2 9.62925 19.1543 9.225 18.3615C8.925 17.775 9.3 17.4 9.89325 17.187C11.0423 16.773 14.4 15.6 18 15.6C21.6 15.6 25.0245 16.611 26.1375 17.187C26.55 17.4 27.0623 17.55 26.7315 18.375V18.3705ZM7.4565 8.13075C7.21424 8.14473 6.97143 8.14648 6.729 8.136C6.92475 7.788 7.0335 7.40025 7.22475 6.99525C7.82475 5.72025 8.511 4.27725 9.73275 3.669C11.4983 2.79 15.1575 2.394 18 2.394C20.8425 2.394 24.5018 2.787 26.2673 3.669C27.489 4.27725 28.1723 5.721 28.7753 6.99525C28.968 7.404 29.0753 7.79475 29.2763 8.145C29.1263 8.15325 28.9538 8.145 28.542 8.13075H7.4565ZM33.5355 12.339C33.375 13.275 33.525 13.2 31.9185 13.2C30.5444 13.1964 29.1715 13.1198 27.8055 12.9705C27.5918 12.9323 27.531 12.5715 27.702 12.438C28.3801 11.9286 29.1446 11.546 29.9588 11.3085C31.5548 10.8383 32.4533 10.7753 33.3405 10.8068C33.4001 10.809 33.4567 10.8333 33.4995 10.8748C33.5423 10.9163 33.5682 10.9722 33.5723 11.0317C33.6146 11.4683 33.6023 11.9085 33.5355 12.342V12.339Z" fill="#251E5E"/>
</svg>
