<svg width="36" height="36" viewBox="0 0 36 36" fill="none" xmlns="http://www.w3.org/2000/svg">
<path d="M35.5 18C35.5 16.8202 34.7135 16.0337 33.5337 16.0337H33.3371C32.5506 8.95506 26.8483 3.44944 19.9663 2.66292V2.46629C19.9663 1.48315 19.1798 0.5 18.1966 0.5C18.1966 0.5 18.1966 0.5 18 0.5C17.8034 0.5 18 0.5 17.8034 0.5C16.8202 0.5 16.0337 1.48315 16.0337 2.46629V2.66292C9.15169 3.44944 3.44944 9.15169 2.66292 16.0337H2.46629C1.48315 16.0337 0.5 16.8202 0.5 17.8034C0.5 17.8034 0.5 17.8034 0.5 18C0.5 18 0.5 18 0.5 18.1966C0.5 19.1798 1.28652 19.9663 2.46629 19.9663H2.66292C3.44944 27.0449 9.15169 32.5506 16.0337 33.3371V33.5337C16.0337 34.5169 16.8202 35.5 17.8034 35.5C17.8034 35.5 17.8034 35.5 18 35.5C18 35.5 18 35.5 18.1966 35.5C19.1798 35.5 19.9663 34.7135 19.9663 33.5337V33.3371C27.0449 32.5506 32.5506 26.8483 33.3371 19.9663H33.5337C34.5169 19.9663 35.5 19.1798 35.5 18ZM19.9663 29.4045V27.6348C19.9663 26.6517 19.1798 25.6685 18 25.6685C16.8202 25.6685 16.0337 26.4551 16.0337 27.6348V29.4045C11.118 28.618 7.38202 24.6854 6.59551 19.9663H8.36517C9.34832 19.9663 10.3315 19.1798 10.3315 18C10.3315 16.8202 9.54494 16.0337 8.36517 16.0337H6.59551C7.38202 11.118 11.118 7.38202 16.0337 6.59551V8.36517C16.0337 9.34832 16.8202 10.3315 18 10.3315C19.1798 10.3315 19.9663 9.54494 19.9663 8.36517V6.59551C24.882 7.38202 28.618 11.3146 29.4045 16.0337H27.6348C26.6517 16.0337 25.6685 16.8202 25.6685 18C25.6685 19.1798 26.4551 19.9663 27.6348 19.9663H29.4045C28.618 24.882 24.882 28.618 19.9663 29.4045Z" fill="#1F1359"/>
</svg>
